<?xml version="1.0" encoding="UTF-8" standalone="no"?>
<!-- Created with Inkscape (http://www.inkscape.org/) -->

<svg
   version="1.1"
   id="svg911"
   width="48"
   height="48"
   viewBox="0 0 48 48"
   xml:space="preserve"
   xmlns="http://www.w3.org/2000/svg"
   xmlns:svg="http://www.w3.org/2000/svg"><defs
     id="defs915" /><g
     id="g917"><path
       id="path5119"
       style="fill:#551363;fill-opacity:1;stroke:#373737;stroke-width:0;stroke-linecap:round;stroke-linejoin:round;stroke-opacity:0;paint-order:stroke fill markers"
       d="m 20.03516,40.786612 a 4,4 0 0 0 -0.03516,0.5 4,4 0 0 0 4,4 4,4 0 0 0 4,-4 4,4 0 0 0 -0.0332,-0.5 z" /><path
       id="path5124"
       style="fill:#551363;fill-opacity:1;stroke:#373737;stroke-width:0;stroke-linecap:round;stroke-linejoin:round;stroke-opacity:0;paint-order:stroke fill markers"
       d="m 21.636744,6.7910538 a 2.6679183,2.8493127 0 0 1 -0.02345,-0.356164 2.6679183,2.8493127 0 0 1 2.667919,-2.8493127 2.6679183,2.8493127 0 0 1 2.667918,2.8493127 2.6679183,2.8493127 0 0 1 -0.02215,0.356164 z" /><path
       id="rect4411"
       style="fill:#551363;fill-opacity:1;stroke:#373737;stroke-width:0;stroke-linecap:round;stroke-linejoin:round;stroke-opacity:0;paint-order:stroke fill markers"
       d="M 24.242149,5.923828 C 21.948395,5.9847028 19.531075,6.4284767 16.876915,7.595959 5.6072497,12.894699 10.285596,26.343538 7.6386333,34.148422 L 24.242149,34.128056 Z" /><path
       id="path5420"
       style="fill:#551363;fill-opacity:1;stroke:#373737;stroke-width:0;stroke-linecap:round;stroke-linejoin:round;stroke-opacity:0;paint-order:stroke fill markers"
       d="m 23.757851,5.923828 c 2.293754,0.060875 4.711073,0.5046487 7.365234,1.672131 11.269665,5.29874 6.591318,18.747579 9.238281,26.552463 l -16.603515,-0.02037 z" /><path
       style="fill:#551363;fill-opacity:1;stroke:#551363;stroke-width:2.7031;stroke-linecap:round;stroke-linejoin:round;stroke-dasharray:none;stroke-opacity:1;paint-order:stroke fill markers"
       d="M 7.748528,38.574794 H 40.251472"
       id="path5632" /><path
       style="fill:#551363;fill-opacity:1;stroke:#551363;stroke-width:2.97578;stroke-linecap:round;stroke-linejoin:round;stroke-dasharray:none;stroke-opacity:1;paint-order:stroke fill markers"
       d="M 8.8992166,34.869449 H 39.069208"
       id="path5634" /></g></svg>
