<?xml version="1.0" encoding="UTF-8" standalone="no"?>
<!-- Created with Inkscape (http://www.inkscape.org/) -->

<svg
   width="48"
   height="48"
   viewBox="0 0 12.7 12.7"
   version="1.1"
   id="svg13179"
   xmlns="http://www.w3.org/2000/svg"
   xmlns:svg="http://www.w3.org/2000/svg">
  <defs
     id="defs13176" />
  <g
     id="layer1">
    <g
       id="g13591"
       transform="matrix(0.26458333,0,0,0.26458333,0.07543966,0.07543966)">
      <circle
         style="fill:#551363;fill-opacity:1;stroke:#551363;stroke-width:0;stroke-linecap:round;stroke-linejoin:round;stroke-dasharray:none;stroke-opacity:0.61706;paint-order:stroke fill markers"
         id="path10966"
         cx="24"
         cy="24"
         r="20.285126" />
      <circle
         style="fill:#f2f2f2;fill-opacity:1;stroke:#551363;stroke-width:0;stroke-linecap:round;stroke-linejoin:round;stroke-dasharray:none;stroke-opacity:0.61706;paint-order:stroke fill markers"
         id="circle12737"
         cx="24"
         cy="24"
         r="18.936554" />
      <circle
         style="fill:#551363;fill-opacity:1;stroke:#551363;stroke-width:0;stroke-linecap:round;stroke-linejoin:round;stroke-dasharray:none;stroke-opacity:0.61706;paint-order:stroke fill markers"
         id="path11020"
         cx="24"
         cy="18.17951"
         r="5.7389607" />
      <g
         id="g11773"
         style="fill:#551363;fill-opacity:1"
         transform="matrix(1,0,0,0.9681119,-0.0011425,0.50885998)">
        <path
           id="rect11076"
           style="fill:#551363;fill-opacity:1;stroke:#551363;stroke-width:0;stroke-linecap:round;stroke-linejoin:round;stroke-opacity:0.61706;paint-order:stroke fill markers"
           d="m 21.213203,24.748735 h 5.568465 c 5.092583,0 9.192388,3.918009 9.192388,8.784772 v 1.433951 c 0,4.867337 -4.630655,7.50623 -9.833204,8.917355 -2.882074,0.781726 -4.883455,0.08839 -4.883455,0.08839 -1.146132,-0.338528 -9.236582,-3.07832 -9.236582,-7.945083 v -2.494611 c 0,-4.866763 4.099805,-8.784772 9.192388,-8.784772 z" />
        <g
           id="g11182"
           style="fill:#551363;fill-opacity:1"
           transform="translate(0.0119549,0.02699878)">
          <path
             id="circle11091"
             style="fill:#551363;fill-opacity:1;stroke:#551363;stroke-width:0;stroke-linecap:round;stroke-linejoin:round;stroke-opacity:0.61706;paint-order:stroke fill markers"
             d="m 24.284896,38.492188 a 5.0351262,5.0351262 0 0 1 -5.035126,5.035126 5.0351262,5.0351262 0 0 1 -5.035126,-5.035126 5.0351262,5.0351262 0 0 1 5.035126,-5.035126 5.0351262,5.0351262 0 0 1 5.035126,5.035126 z" />
          <path
             id="circle11089"
             style="fill:#551363;fill-opacity:1;stroke:#551363;stroke-width:0;stroke-linecap:round;stroke-linejoin:round;stroke-opacity:0.61706;paint-order:stroke fill markers"
             d="m 22.23802,38.0625 c 0,2.780823 -3.410553,5.660126 -5.019501,5.050751 -2.600553,-0.984937 -5.050751,-2.269928 -5.050751,-5.050751 0,-2.780823 2.254303,-5.035126 5.035126,-5.035126 2.780823,0 5.035126,2.254303 5.035126,5.035126 z" />
          <path
             id="circle11093"
             style="fill:#551363;fill-opacity:1;stroke:#551363;stroke-width:0;stroke-linecap:round;stroke-linejoin:round;stroke-opacity:0.61706;paint-order:stroke fill markers"
             d="m 24.722396,38.623429 a 5.0351262,5.0351262 0 0 1 -5.035126,5.035126 5.0351262,5.0351262 0 0 1 -5.035126,-5.035126 5.0351262,5.0351262 0 0 1 5.035126,-5.035126 5.0351262,5.0351262 0 0 1 5.035126,5.035126 z" />
          <path
             id="circle11099"
             style="fill:#551363;fill-opacity:1;stroke:#551363;stroke-width:0;stroke-linecap:round;stroke-linejoin:round;stroke-opacity:0.61706;paint-order:stroke fill markers"
             d="m 25.525308,38.831639 a 5.0351262,5.0351262 0 0 1 -5.035126,5.035126 5.0351262,5.0351262 0 0 1 -5.035126,-5.035126 5.0351262,5.0351262 0 0 1 5.035126,-5.035126 5.0351262,5.0351262 0 0 1 5.035126,5.035126 z" />
          <path
             id="circle11101"
             style="fill:#551363;fill-opacity:1;stroke:#551363;stroke-width:0;stroke-linecap:round;stroke-linejoin:round;stroke-opacity:0.61706;paint-order:stroke fill markers"
             d="m 25.09574,38.724215 a 5.0351262,5.0351262 0 0 1 -5.035126,5.035126 5.0351262,5.0351262 0 0 1 -5.035126,-5.035126 5.0351262,5.0351262 0 0 1 5.035126,-5.035126 5.0351262,5.0351262 0 0 1 5.035126,5.035126 z" />
          <path
             id="circle11103"
             style="fill:#551363;fill-opacity:1;stroke:#551363;stroke-width:0;stroke-linecap:round;stroke-linejoin:round;stroke-opacity:0.61706;paint-order:stroke fill markers"
             d="m 24.994379,38.683065 a 5.0351262,5.0351262 0 0 1 -5.035127,5.035126 5.0351262,5.0351262 0 0 1 -5.035126,-5.035126 5.0351262,5.0351262 0 0 1 5.035126,-5.035127 5.0351262,5.0351262 0 0 1 5.035127,5.035127 z" />
          <path
             id="path11139"
             style="fill:#551363;fill-opacity:1;stroke:#551363;stroke-width:0;stroke-linecap:round;stroke-linejoin:round;stroke-opacity:0.61706;paint-order:stroke fill markers"
             d="m 25.97062,38.933202 a 5.0351262,5.0351262 0 0 1 -5.035126,5.035125 5.0351262,5.0351262 0 0 1 -5.035126,-5.035125 5.0351262,5.0351262 0 0 1 5.035126,-5.035126 5.0351262,5.0351262 0 0 1 5.035126,5.035126 z" />
        </g>
        <g
           id="g11198"
           style="fill:#551363;fill-opacity:1"
           transform="matrix(-0.99864166,-0.05210415,-0.05210415,0.99864166,49.367757,1.338273)">
          <path
             id="path11184"
             style="fill:#551363;fill-opacity:1;stroke:#551363;stroke-width:0;stroke-linecap:round;stroke-linejoin:round;stroke-opacity:0.61706;paint-order:stroke fill markers"
             d="m 24.284896,38.492188 a 5.0351262,5.0351262 0 0 1 -5.035126,5.035126 5.0351262,5.0351262 0 0 1 -5.035126,-5.035126 5.0351262,5.0351262 0 0 1 5.035126,-5.035126 5.0351262,5.0351262 0 0 1 5.035126,5.035126 z" />
          <path
             id="path11186"
             style="fill:#551363;fill-opacity:1;stroke:#551363;stroke-width:0;stroke-linecap:round;stroke-linejoin:round;stroke-opacity:0.61706;paint-order:stroke fill markers"
             d="m 22.23802,38.0625 c 0,2.780823 -3.410553,5.660126 -5.019501,5.050751 -2.600553,-0.984937 -5.050751,-2.269928 -5.050751,-5.050751 0,-2.780823 2.254303,-5.035126 5.035126,-5.035126 2.780823,0 5.035126,2.254303 5.035126,5.035126 z" />
          <path
             id="path11188"
             style="fill:#551363;fill-opacity:1;stroke:#551363;stroke-width:0;stroke-linecap:round;stroke-linejoin:round;stroke-opacity:0.61706;paint-order:stroke fill markers"
             d="m 24.722396,38.623429 a 5.0351262,5.0351262 0 0 1 -5.035126,5.035126 5.0351262,5.0351262 0 0 1 -5.035126,-5.035126 5.0351262,5.0351262 0 0 1 5.035126,-5.035126 5.0351262,5.0351262 0 0 1 5.035126,5.035126 z" />
          <path
             id="path11190"
             style="fill:#551363;fill-opacity:1;stroke:#551363;stroke-width:0;stroke-linecap:round;stroke-linejoin:round;stroke-opacity:0.61706;paint-order:stroke fill markers"
             d="m 25.525308,38.831639 a 5.0351262,5.0351262 0 0 1 -5.035126,5.035126 5.0351262,5.0351262 0 0 1 -5.035126,-5.035126 5.0351262,5.0351262 0 0 1 5.035126,-5.035126 5.0351262,5.0351262 0 0 1 5.035126,5.035126 z" />
          <path
             id="path11192"
             style="fill:#551363;fill-opacity:1;stroke:#551363;stroke-width:0;stroke-linecap:round;stroke-linejoin:round;stroke-opacity:0.61706;paint-order:stroke fill markers"
             d="m 25.09574,38.724215 a 5.0351262,5.0351262 0 0 1 -5.035126,5.035126 5.0351262,5.0351262 0 0 1 -5.035126,-5.035126 5.0351262,5.0351262 0 0 1 5.035126,-5.035126 5.0351262,5.0351262 0 0 1 5.035126,5.035126 z" />
          <path
             id="path11194"
             style="fill:#551363;fill-opacity:1;stroke:#551363;stroke-width:0;stroke-linecap:round;stroke-linejoin:round;stroke-opacity:0.61706;paint-order:stroke fill markers"
             d="m 24.994379,38.683065 a 5.0351262,5.0351262 0 0 1 -5.035127,5.035126 5.0351262,5.0351262 0 0 1 -5.035126,-5.035126 5.0351262,5.0351262 0 0 1 5.035126,-5.035127 5.0351262,5.0351262 0 0 1 5.035127,5.035127 z" />
          <path
             id="path11196"
             style="fill:#551363;fill-opacity:1;stroke:#551363;stroke-width:0;stroke-linecap:round;stroke-linejoin:round;stroke-opacity:0.61706;paint-order:stroke fill markers"
             d="m 25.97062,38.933202 a 5.0351262,5.0351262 0 0 1 -5.035126,5.035125 5.0351262,5.0351262 0 0 1 -5.035126,-5.035125 5.0351262,5.0351262 0 0 1 5.035126,-5.035126 5.0351262,5.0351262 0 0 1 5.035126,5.035126 z" />
        </g>
        <g
           id="g11214"
           style="fill:#551363;fill-opacity:1"
           transform="matrix(-0.94994028,-0.31243155,-0.31243155,0.94994028,53.582377,8.6672388)">
          <path
             id="path11200"
             style="fill:#551363;fill-opacity:1;stroke:#551363;stroke-width:0;stroke-linecap:round;stroke-linejoin:round;stroke-opacity:0.61706;paint-order:stroke fill markers"
             d="m 24.284896,38.492188 a 5.0351262,5.0351262 0 0 1 -5.035126,5.035126 5.0351262,5.0351262 0 0 1 -5.035126,-5.035126 5.0351262,5.0351262 0 0 1 5.035126,-5.035126 5.0351262,5.0351262 0 0 1 5.035126,5.035126 z" />
          <path
             id="path11202"
             style="fill:#551363;fill-opacity:1;stroke:#551363;stroke-width:0;stroke-linecap:round;stroke-linejoin:round;stroke-opacity:0.61706;paint-order:stroke fill markers"
             d="m 22.23802,38.0625 c 0,2.780823 -3.410553,5.660126 -5.019501,5.050751 -2.600553,-0.984937 -5.050751,-2.269928 -5.050751,-5.050751 0,-2.780823 2.254303,-5.035126 5.035126,-5.035126 2.780823,0 5.035126,2.254303 5.035126,5.035126 z" />
          <path
             id="path11204"
             style="fill:#551363;fill-opacity:1;stroke:#551363;stroke-width:0;stroke-linecap:round;stroke-linejoin:round;stroke-opacity:0.61706;paint-order:stroke fill markers"
             d="m 24.722396,38.623429 a 5.0351262,5.0351262 0 0 1 -5.035126,5.035126 5.0351262,5.0351262 0 0 1 -5.035126,-5.035126 5.0351262,5.0351262 0 0 1 5.035126,-5.035126 5.0351262,5.0351262 0 0 1 5.035126,5.035126 z" />
          <path
             id="path11206"
             style="fill:#551363;fill-opacity:1;stroke:#551363;stroke-width:0;stroke-linecap:round;stroke-linejoin:round;stroke-opacity:0.61706;paint-order:stroke fill markers"
             d="m 25.525308,38.831639 a 5.0351262,5.0351262 0 0 1 -5.035126,5.035126 5.0351262,5.0351262 0 0 1 -5.035126,-5.035126 5.0351262,5.0351262 0 0 1 5.035126,-5.035126 5.0351262,5.0351262 0 0 1 5.035126,5.035126 z" />
          <path
             id="path11208"
             style="fill:#551363;fill-opacity:1;stroke:#551363;stroke-width:0;stroke-linecap:round;stroke-linejoin:round;stroke-opacity:0.61706;paint-order:stroke fill markers"
             d="m 25.09574,38.724215 a 5.0351262,5.0351262 0 0 1 -5.035126,5.035126 5.0351262,5.0351262 0 0 1 -5.035126,-5.035126 5.0351262,5.0351262 0 0 1 5.035126,-5.035126 5.0351262,5.0351262 0 0 1 5.035126,5.035126 z" />
          <path
             id="path11210"
             style="fill:#551363;fill-opacity:1;stroke:#551363;stroke-width:0;stroke-linecap:round;stroke-linejoin:round;stroke-opacity:0.61706;paint-order:stroke fill markers"
             d="m 24.994379,38.683065 a 5.0351262,5.0351262 0 0 1 -5.035127,5.035126 5.0351262,5.0351262 0 0 1 -5.035126,-5.035126 5.0351262,5.0351262 0 0 1 5.035126,-5.035127 5.0351262,5.0351262 0 0 1 5.035127,5.035127 z" />
          <path
             id="path11212"
             style="fill:#551363;fill-opacity:1;stroke:#551363;stroke-width:0;stroke-linecap:round;stroke-linejoin:round;stroke-opacity:0.61706;paint-order:stroke fill markers"
             d="m 25.97062,38.933202 a 5.0351262,5.0351262 0 0 1 -5.035126,5.035125 5.0351262,5.0351262 0 0 1 -5.035126,-5.035125 5.0351262,5.0351262 0 0 1 5.035126,-5.035126 5.0351262,5.0351262 0 0 1 5.035126,5.035126 z" />
        </g>
        <g
           id="g11230"
           style="fill:#551363;fill-opacity:1"
           transform="matrix(-0.94994028,-0.31243155,-0.31243155,0.94994028,54.441752,8.7609888)">
          <path
             id="path11216"
             style="fill:#551363;fill-opacity:1;stroke:#551363;stroke-width:0;stroke-linecap:round;stroke-linejoin:round;stroke-opacity:0.61706;paint-order:stroke fill markers"
             d="m 24.284896,38.492188 a 5.0351262,5.0351262 0 0 1 -5.035126,5.035126 5.0351262,5.0351262 0 0 1 -5.035126,-5.035126 5.0351262,5.0351262 0 0 1 5.035126,-5.035126 5.0351262,5.0351262 0 0 1 5.035126,5.035126 z" />
          <path
             id="path11218"
             style="fill:#551363;fill-opacity:1;stroke:#551363;stroke-width:0;stroke-linecap:round;stroke-linejoin:round;stroke-opacity:0.61706;paint-order:stroke fill markers"
             d="m 22.23802,38.0625 c 0,2.780823 -3.410553,5.660126 -5.019501,5.050751 -2.600553,-0.984937 -5.050751,-2.269928 -5.050751,-5.050751 0,-2.780823 2.254303,-5.035126 5.035126,-5.035126 2.780823,0 5.035126,2.254303 5.035126,5.035126 z" />
          <path
             id="path11220"
             style="fill:#551363;fill-opacity:1;stroke:#551363;stroke-width:0;stroke-linecap:round;stroke-linejoin:round;stroke-opacity:0.61706;paint-order:stroke fill markers"
             d="m 24.722396,38.623429 a 5.0351262,5.0351262 0 0 1 -5.035126,5.035126 5.0351262,5.0351262 0 0 1 -5.035126,-5.035126 5.0351262,5.0351262 0 0 1 5.035126,-5.035126 5.0351262,5.0351262 0 0 1 5.035126,5.035126 z" />
          <path
             id="path11222"
             style="fill:#551363;fill-opacity:1;stroke:#551363;stroke-width:0;stroke-linecap:round;stroke-linejoin:round;stroke-opacity:0.61706;paint-order:stroke fill markers"
             d="m 25.525308,38.831639 a 5.0351262,5.0351262 0 0 1 -5.035126,5.035126 5.0351262,5.0351262 0 0 1 -5.035126,-5.035126 5.0351262,5.0351262 0 0 1 5.035126,-5.035126 5.0351262,5.0351262 0 0 1 5.035126,5.035126 z" />
          <path
             id="path11224"
             style="fill:#551363;fill-opacity:1;stroke:#551363;stroke-width:0;stroke-linecap:round;stroke-linejoin:round;stroke-opacity:0.61706;paint-order:stroke fill markers"
             d="m 25.09574,38.724215 a 5.0351262,5.0351262 0 0 1 -5.035126,5.035126 5.0351262,5.0351262 0 0 1 -5.035126,-5.035126 5.0351262,5.0351262 0 0 1 5.035126,-5.035126 5.0351262,5.0351262 0 0 1 5.035126,5.035126 z" />
          <path
             id="path11226"
             style="fill:#551363;fill-opacity:1;stroke:#551363;stroke-width:0;stroke-linecap:round;stroke-linejoin:round;stroke-opacity:0.61706;paint-order:stroke fill markers"
             d="m 24.994379,38.683065 a 5.0351262,5.0351262 0 0 1 -5.035127,5.035126 5.0351262,5.0351262 0 0 1 -5.035126,-5.035126 5.0351262,5.0351262 0 0 1 5.035126,-5.035127 5.0351262,5.0351262 0 0 1 5.035127,5.035127 z" />
          <path
             id="path11228"
             style="fill:#551363;fill-opacity:1;stroke:#551363;stroke-width:0;stroke-linecap:round;stroke-linejoin:round;stroke-opacity:0.61706;paint-order:stroke fill markers"
             d="m 25.97062,38.933202 a 5.0351262,5.0351262 0 0 1 -5.035126,5.035125 5.0351262,5.0351262 0 0 1 -5.035126,-5.035125 5.0351262,5.0351262 0 0 1 5.035126,-5.035126 5.0351262,5.0351262 0 0 1 5.035126,5.035126 z" />
        </g>
        <path
           style="fill:#551363;fill-opacity:1;stroke:#551363;stroke-width:0;stroke-linecap:round;stroke-linejoin:round;stroke-dasharray:none;stroke-opacity:0.61706;paint-order:stroke fill markers"
           d="m 12.12133,32.276999 -0.21875,8.023437 c 1.375298,1.091935 3.200777,2.11425 5.306338,2.830349 z"
           id="path11286" />
        <path
           style="fill:#551363;fill-opacity:1;stroke:#551363;stroke-width:0;stroke-linecap:round;stroke-linejoin:round;stroke-dasharray:none;stroke-opacity:0.61706;paint-order:stroke fill markers"
           d="m 35.880955,32.265951 0.21875,8.023437 c -1.375298,1.091935 -3.200777,2.11425 -5.306338,2.830349 z"
           id="path11650" />
      </g>
    </g>
  </g>
</svg>
